# xmcd
#
# Track frame offsets:
#	150
#	15648
#	29355
#	33395
#	47554
#	53325
#	66621
#	72204
#	128831
#	138458
#	239881
#	242705
#	249782
#	250743
#
# Disc length: 3374 seconds
#
# Revision: 0
# Processed by: cddbd v1.5.2PL0 Copyright (c) Steve Scherf et al.
# Submitted via: EasyCDDAExtractor 16.1.0.1
#
DISCID=c10d2c0e
DTITLE=Vincent Price - A Hornbook For Witches
DYEAR=1900
DGENRE=
TTITLE0=How To See Ghosts Or Surely Bring Them To You
TTITLE1=A Hornbook For Witches
TTITLE2=Witches On The Heath
TTITLE3=The Ballad Of The Jabberwock
TTITLE4=All-Saints' Eve
TTITLE5=Dream-Land
TTITLE6=The Sands Of Dee
TTITLE7=Thus I Refute Beelzy
TTITLE8=Don't
TTITLE9=The Water Ghost Of Harrowby Hall
TTITLE10=Sound FX - The Creeping Hooror
TTITLE11=Sound FX - Storm, Wind, Creaking Door, Ghost Moaning, Dog Howling
TTITLE12=Sound FX - Witch
TTITLE13=Sound FX - Monsters Eating
EXTD=
EXTT0=
EXTT1=
EXTT2=
EXTT3=
EXTT4=
EXTT5=
EXTT6=
EXTT7=
EXTT8=
EXTT9=
EXTT10=
EXTT11=
EXTT12=
EXTT13=
PLAYORDER=
